<svg width="24" height="24" viewBox="0 0 24 24" fill="none" xmlns="http://www.w3.org/2000/svg">
<path d="M21.8719 0.905624H2.13001C1.45381 0.905624 0.90564 1.4538 0.90564 2.13V21.8719C0.90564 22.5481 1.45381 23.0962 2.13001 23.0962H21.8719C22.5481 23.0962 23.0963 22.5481 23.0963 21.8719V2.13C23.0963 1.4538 22.5481 0.905624 21.8719 0.905624Z" fill="#E5E5E5"/>
<path d="M16.215 23.0944V14.5012H19.0987L19.53 11.1525H16.215V9.015C16.215 8.04563 16.485 7.38375 17.8744 7.38375H19.6481V4.38375C18.7892 4.29423 17.926 4.25167 17.0625 4.25625C14.5087 4.25625 12.75 5.8125 12.75 8.68313V11.1525H9.86624V14.5012H12.75V23.0944H16.215Z" fill="#1E1E1E"/>
</svg>
