<svg width="24" height="24" viewBox="0 0 24 24" fill="none" xmlns="http://www.w3.org/2000/svg">
<g clip-path="url(#clip0_5_24)">
<path d="M7.54763 23.9319C16.6048 23.9319 21.5574 14.7525 21.5574 6.79387C21.5574 6.53325 21.5574 6.27319 21.5434 6.01462C22.5073 5.16206 23.3394 4.10587 24 2.89594C23.1019 3.38381 22.1492 3.70312 21.1729 3.84525C22.2004 3.0915 22.9695 1.90725 23.3364 0.512624C22.3697 1.21444 21.312 1.70887 20.2089 1.97531C18.6834 -0.00956333 16.2583 -0.495938 14.2939 0.790312C12.3304 2.07656 11.316 4.81406 11.8191 7.4685C7.86038 7.22606 4.17113 4.938 1.67157 1.17562C0.362442 3.92625 1.02882 7.44806 3.19163 9.2175C2.41388 9.18525 1.65282 8.92594 0.973129 8.46169V8.53856C0.973129 11.4022 2.6205 13.8707 4.91438 14.4433C4.19702 14.6844 3.42645 14.7197 2.69007 14.5451C3.3345 17.0002 5.18325 18.6833 7.29038 18.7316C5.54569 20.4037 3.39169 21.3097 1.17469 21.3041C0.782067 21.3041 0.389442 21.276 -0.000183105 21.2205C2.25132 22.9892 4.87107 23.9282 7.54744 23.9246" fill="#E5E5E5"/>
</g>
<defs>
<clipPath id="clip0_5_24">
<rect width="24" height="24" fill="white"/>
</clipPath>
</defs>
</svg>
